<?xml version="1.0" standalone="no"?>
<!DOCTYPE svg PUBLIC "-//W3C//DTD SVG 20010904//EN"
 "http://www.w3.org/TR/2001/REC-SVG-20010904/DTD/svg10.dtd">
<svg version="1.0" xmlns="http://www.w3.org/2000/svg"
 width="500.000000pt" height="500.000000pt" viewBox="0 0 500.000000 500.000000"
 preserveAspectRatio="xMidYMid meet">

<g transform="translate(0.000000,500.000000) scale(0.100000,-0.100000)"
fill="#000000" stroke="none">
<path d="M1780 3054 c-168 -338 -306 -619 -308 -624 -2 -6 77 -10 205 -10
l208 0 102 204 c120 240 86 219 343 215 l168 -3 -31 -60 c-17 -34 -36 -68 -42
-76 -7 -8 -19 -36 -29 -62 -10 -27 -22 -48 -27 -48 -6 0 -8 -4 -5 -9 3 -5 -3
-19 -13 -32 -18 -23 -41 -89 -41 -117 0 -10 45 -12 207 -10 l206 3 96 192 c53
106 101 197 107 203 7 7 44 -56 113 -195 l103 -205 204 0 c128 0 204 4 204 10
0 10 -405 828 -415 838 -7 7 -396 3 -408 -5 -4 -2 -53 -95 -108 -205 -77 -153
-103 -198 -112 -189 -7 6 -100 188 -207 403 -107 216 -199 393 -205 395 -5 1
-147 -275 -315 -613z"/>
<path d="M582 2070 c-128 -27 -201 -131 -137 -195 45 -45 134 -21 135 37 0 12
-7 9 -30 -14 -25 -24 -36 -29 -58 -23 -47 12 -54 41 -22 93 33 53 110 82 221
82 l90 0 -32 -39 c-18 -21 -63 -92 -99 -157 -74 -130 -71 -129 -150 -98 -53
20 -94 14 -110 -16 -34 -63 68 -105 153 -64 32 15 39 15 99 0 83 -21 133 -20
184 3 96 44 112 132 32 180 l-30 19 35 11 c41 14 63 36 72 72 9 35 -34 85 -83
98 -54 15 -220 22 -270 11z m278 -45 c79 -41 27 -125 -77 -125 -29 0 -53 -4
-53 -9 0 -5 23 -17 52 -27 94 -35 111 -98 40 -152 -31 -23 -44 -27 -101 -26
-36 0 -79 6 -95 13 l-28 11 26 33 c14 17 42 59 62 92 20 33 57 93 81 133 24
39 49 72 54 72 6 0 23 -7 39 -15z m-355 -292 c19 -9 35 -20 35 -24 0 -15 -81
-33 -98 -22 -22 13 -28 43 -10 54 19 13 33 11 73 -8z"/>
<path d="M2687 1986 c-38 -40 -148 -258 -141 -278 3 -10 13 -18 23 -18 13 0
20 10 25 38 7 48 57 153 102 215 24 33 32 53 26 59 -7 7 -19 2 -35 -16z"/>
<path d="M1609 1979 c-11 -11 -27 -36 -35 -55 -8 -19 -20 -34 -28 -34 -8 0
-13 -11 -13 -27 0 -16 -6 -54 -13 -85 -16 -66 -5 -91 39 -86 27 3 71 58 71 87
0 10 -7 4 -18 -14 -41 -66 -81 -71 -63 -8 11 37 69 113 87 113 6 0 12 10 12
23 0 12 3 41 7 65 6 35 5 42 -9 42 -9 0 -25 -9 -37 -21z m11 -73 l-22 -21 7
25 c4 14 13 31 19 39 9 12 12 11 14 -4 2 -9 -6 -27 -18 -39z m-26 -51 c-4 -8
-10 -15 -15 -15 -4 0 -6 7 -3 15 4 8 10 15 15 15 4 0 6 -7 3 -15z"/>
<path d="M4063 1976 c-11 -14 -26 -38 -32 -55 -7 -16 -22 -32 -34 -35 -17 -5
-19 -8 -8 -15 11 -7 11 -17 -3 -59 -10 -28 -16 -66 -14 -84 3 -29 7 -33 35
-36 28 -3 35 2 57 37 15 22 26 46 26 53 0 7 -6 4 -12 -7 -17 -32 -50 -65 -65
-65 -29 0 -7 73 35 119 12 13 22 28 22 32 0 5 9 9 20 9 11 0 20 5 20 10 0 6
-5 10 -10 10 -6 0 -4 13 5 31 32 61 -3 106 -42 55z m27 -56 c-7 -16 -18 -30
-26 -30 -13 0 -7 16 20 58 14 23 19 4 6 -28z m-40 -71 c-7 -11 -14 -19 -16
-16 -7 7 7 37 17 37 6 0 5 -9 -1 -21z"/>
<path d="M1440 1925 c-10 -12 -10 -19 -2 -27 16 -16 42 -2 42 22 0 24 -22 26
-40 5z"/>
<path d="M4354 1863 c-9 -32 -26 -75 -37 -95 -11 -21 -18 -41 -14 -44 3 -4 18
19 34 50 18 37 33 56 45 56 23 0 23 -8 -2 -45 -36 -55 -20 -109 27 -91 15 6
15 8 3 16 -13 8 -12 16 4 57 31 82 31 83 3 83 -22 0 -25 4 -23 31 2 56 -22 44
-40 -18z"/>
<path d="M3873 1887 c-28 -12 -35 -31 -23 -63 21 -55 4 -124 -31 -124 -11 0 0
80 13 97 6 7 8 18 6 24 -6 19 -60 -79 -56 -104 2 -18 11 -23 42 -25 59 -5 82
4 105 42 23 37 25 46 12 46 -5 0 -14 -14 -21 -30 -7 -17 -21 -35 -32 -41 -19
-10 -19 -9 -3 22 15 29 15 35 1 73 -21 55 -20 65 6 75 12 4 17 10 12 13 -5 3
-19 1 -31 -5z"/>
<path d="M1022 1845 c-36 -31 -54 -72 -50 -116 3 -34 4 -34 62 -39 49 -5 62
-2 80 15 26 24 52 73 43 81 -4 4 -11 -4 -16 -17 -11 -28 -47 -69 -61 -69 -14
0 -12 21 4 39 23 28 36 80 26 106 -12 33 -49 33 -88 0z m73 -5 c12 -20 -15
-79 -38 -82 -16 -2 -22 -10 -22 -27 0 -26 -19 -39 -30 -22 -10 18 13 84 40
114 28 29 40 33 50 17z"/>
<path d="M1416 1858 c-2 -7 -14 -41 -26 -76 -24 -71 -18 -92 28 -92 25 0 25 1
7 14 -19 13 -19 16 8 81 14 38 24 72 21 76 -8 13 -34 11 -38 -3z"/>
<path d="M1701 1838 c-36 -37 -56 -89 -47 -124 7 -24 39 -34 51 -14 3 6 -1 10
-9 10 -34 0 -9 65 42 114 25 23 36 27 58 22 24 -6 26 -5 15 8 -23 27 -75 20
-110 -16z"/>
<path d="M2386 1835 c-38 -38 -49 -66 -44 -111 2 -21 9 -30 26 -32 24 -4 30
13 7 21 -20 8 -4 51 37 101 25 31 36 37 60 34 18 -3 27 0 25 6 -2 6 -20 12
-39 14 -30 3 -42 -3 -72 -33z"/>
<path d="M2663 1844 c-26 -24 -22 -26 22 -8 31 13 13 -17 -25 -41 -39 -25 -47
-44 -34 -80 12 -31 84 -42 84 -13 0 6 -6 8 -14 5 -7 -3 -19 0 -25 6 -16 16
-14 67 3 67 25 0 66 41 66 66 0 33 -40 32 -77 -2z"/>
<path d="M2842 1852 c-53 -42 -80 -120 -50 -150 24 -24 74 -14 102 19 38 45
32 57 -8 15 -38 -41 -62 -46 -72 -14 -5 16 -1 27 16 40 12 10 28 18 34 18 20
0 58 47 54 67 -4 24 -47 28 -76 5z m58 -12 c0 -14 -46 -60 -60 -60 -13 0 -5
16 23 48 22 24 37 29 37 12z"/>
<path d="M3236 1848 c-24 -38 -50 -123 -43 -141 7 -19 52 -23 63 -5 5 8 2 9
-9 5 -9 -3 -19 -2 -22 3 -4 7 26 81 63 153 10 19 -39 4 -52 -15z"/>
<path d="M3310 1809 c-37 -72 -35 -119 5 -119 27 0 49 19 70 61 21 39 5 36
-20 -3 -11 -17 -26 -33 -32 -36 -22 -6 -15 32 17 94 16 32 30 60 30 62 0 1 -9
2 -20 2 -14 0 -28 -17 -50 -61z"/>
<path d="M3440 1842 c0 -42 -37 -148 -76 -220 -19 -34 -34 -65 -34 -67 0 -11
38 -4 47 8 5 6 20 38 33 70 21 53 25 57 55 57 40 0 80 30 105 81 23 44 25 70
8 87 -19 19 -39 14 -70 -15 l-28 -27 0 27 c0 20 -5 27 -20 27 -15 0 -20 -7
-20 -28z m114 0 c9 -15 -31 -88 -63 -115 -55 -46 -60 -33 -17 43 35 63 68 92
80 72z"/>
<path d="M4149 1830 c-36 -38 -40 -46 -37 -88 l3 -47 55 -2 c65 -3 90 8 114
48 26 44 12 48 -16 5 -13 -19 -29 -38 -36 -41 -28 -11 -30 7 -6 42 19 28 24
48 22 78 -3 36 -6 40 -31 43 -23 3 -37 -5 -68 -38z m87 6 c9 -24 -22 -84 -43
-83 -13 2 -18 -5 -18 -23 0 -15 -6 -25 -15 -25 -24 0 -16 61 14 106 27 40 52
50 62 25z"/>
<path d="M4553 1855 c-51 -36 -80 -124 -51 -153 7 -7 26 -12 43 -12 33 0 62
24 85 70 9 17 0 12 -27 -17 -40 -43 -67 -54 -76 -30 -7 18 10 57 25 57 10 0
10 2 -1 9 -10 7 -6 16 17 42 36 41 55 31 23 -11 -26 -36 -14 -40 18 -6 13 13
21 32 19 43 -4 23 -46 28 -75 8z"/>
<path d="M1216 1838 c-25 -39 -68 -139 -62 -145 14 -15 39 13 71 80 19 41 35
77 35 80 0 16 -31 5 -44 -15z"/>
<path d="M1302 1848 c-12 -6 -21 -16 -19 -22 2 -6 -5 -30 -15 -54 -24 -53 -17
-82 20 -81 15 0 21 3 15 6 -19 7 -16 32 12 91 35 75 33 82 -13 60z"/>
<path d="M2050 1778 c-35 -77 -37 -97 -7 -85 11 4 37 50 68 122 7 17 15 33 17
38 2 4 -6 7 -18 7 -16 0 -29 -17 -60 -82z"/>
<path d="M2143 1835 c-22 -19 -24 -24 -11 -25 15 0 15 -4 -3 -46 -19 -43 -20
-74 -1 -74 11 0 72 126 72 150 0 27 -23 25 -57 -5z"/>
<path d="M2241 1838 c-27 -17 -30 -23 -17 -28 15 -5 15 -7 2 -25 -9 -11 -16
-37 -16 -57 0 -33 3 -38 23 -38 27 1 57 22 57 41 0 8 -7 4 -16 -9 -17 -25 -34
-29 -34 -8 0 8 11 38 25 68 39 82 34 93 -24 56z"/>
<path d="M1769 1807 c-38 -53 -34 -117 7 -117 13 0 24 5 24 10 0 6 -4 10 -10
10 -16 0 -12 32 10 73 24 45 24 47 3 47 -10 0 -25 -11 -34 -23z"/>
<path d="M2462 1817 c-7 -7 -18 -29 -26 -47 -17 -40 -4 -80 26 -80 23 0 37 14
61 60 l18 35 -25 -30 c-14 -16 -26 -33 -26 -37 0 -5 -7 -8 -16 -8 -17 0 -13
22 12 72 8 15 14 32 14 38 0 14 -25 13 -38 -3z"/>
<path d="M3015 1810 c-4 -7 -3 -15 1 -19 12 -11 115 2 114 14 0 14 -107 19
-115 5z"/>
<path d="M2305 1770 c-4 -12 -5 -24 -2 -27 3 -2 8 5 12 17 4 12 5 24 2 27 -3
2 -8 -5 -12 -17z"/>
<path d="M1466 1751 c-23 -43 -19 -52 5 -13 12 18 19 35 16 38 -3 3 -13 -8
-21 -25z"/>
<path d="M1826 1751 c-23 -43 -19 -52 5 -13 12 18 19 35 16 38 -3 3 -13 -8
-21 -25z"/>
<path d="M2747 1774 c-4 -4 -7 -14 -7 -23 0 -11 3 -12 11 -4 6 6 10 16 7 23
-2 6 -7 8 -11 4z"/>
<path d="M4446 1763 c-3 -10 -9 -25 -12 -33 -3 -8 4 -4 15 9 22 25 27 41 12
41 -5 0 -11 -8 -15 -17z"/>
<path d="M1337 1742 c-19 -20 -23 -37 -7 -27 10 6 33 45 27 45 -2 0 -11 -8
-20 -18z"/>
</g>
</svg>
